<svg width="32" height="32" viewBox="0 0 32 32" fill="none" xmlns="http://www.w3.org/2000/svg">
<g clip-path="url(#clip0)">
<path d="M30.2808 19.5004C30.2808 17.5188 28.6688 15.9068 26.6872 15.9068C26.2906 15.9068 25.9092 15.9723 25.5522 16.0915L26.6433 3.87451C26.8516 1.66289 24.7123 -0.0463057 22.5366 0.000942859H9.46349C7.28813 -0.0467432 5.14813 1.66339 5.35681 3.87451L5.50618 5.54702C5.52918 5.80495 5.75767 5.99488 6.01473 5.97226C6.27259 5.94919 6.46296 5.72151 6.4399 5.46365L6.29053 3.79114C6.15035 2.11675 7.82336 0.906727 9.46349 0.938414H22.5366C24.1763 0.90629 25.8501 2.11719 25.7095 3.79114L24.5653 16.6024C23.6737 17.257 23.0936 18.312 23.0936 19.5003C23.0936 19.836 23.1408 20.1606 23.2273 20.4691H8.77277C8.85926 20.1606 8.90651 19.836 8.90651 19.5003C8.90651 18.3119 8.32634 17.257 7.43475 16.6024L6.63465 7.64395C6.61165 7.38609 6.38384 7.19678 6.1261 7.21872C5.86823 7.24178 5.67786 7.46946 5.70092 7.72733L6.4479 16.0914C6.09085 15.9723 5.70949 15.9067 5.31287 15.9067C5.12044 15.9067 4.9272 15.9221 4.73845 15.9524C4.4829 15.9935 4.30897 16.2341 4.35009 16.4896C4.39115 16.7452 4.63133 16.9185 4.88733 16.878C5.02695 16.8556 5.17013 16.8442 5.31287 16.8442C6.77752 16.8442 7.96904 18.0357 7.96904 19.5003C7.96904 20.965 6.77752 22.1565 5.31287 22.1565C3.84823 22.1565 2.65671 20.965 2.65671 19.5003C2.65671 18.8798 2.87514 18.2762 3.27169 17.8006C3.4375 17.6018 3.41068 17.3062 3.21188 17.1404C3.01295 16.9747 2.71746 17.0014 2.55171 17.2003C2.01491 17.8441 1.7193 18.6609 1.7193 19.5004C1.7193 20.6164 2.23122 21.6145 3.03195 22.2741L3.03176 24.1489C3.03176 25.1395 3.65605 25.9867 4.53171 26.3187V29.027C4.53171 29.443 4.87014 29.7813 5.286 29.7813H6.28166V30.4063C6.28166 31.2851 6.99657 32 7.87536 32C8.75414 32 9.46906 31.2851 9.46906 30.4063V29.7813H22.5311V30.4063C22.5311 31.2851 23.2461 32 24.1248 32C25.0036 32 25.7185 31.2851 25.7185 30.4063V29.7813H26.7142C27.1301 29.7813 27.4685 29.443 27.4685 29.027V26.3187C28.3442 25.9867 28.9684 25.1395 28.9684 24.1489L28.9769 22.267C29.7725 21.6073 30.2808 20.6124 30.2808 19.5004ZM26.6872 16.8442C28.1518 16.8442 29.3434 18.0358 29.3434 19.5004C29.3434 20.965 28.1518 22.1566 26.6872 22.1566C25.2226 22.1566 24.031 20.965 24.031 19.5004C24.031 18.0358 25.2226 16.8442 26.6872 16.8442ZM8.53152 30.4063C8.53152 30.7682 8.23716 31.0625 7.87529 31.0625C7.51343 31.0625 7.21907 30.7682 7.21907 30.4063V29.7813H8.53152V30.4063ZM24.781 30.4063C24.781 30.7682 24.4867 31.0625 24.1248 31.0625C23.7629 31.0625 23.4686 30.7682 23.4686 30.4063V29.7813H24.781V30.4063ZM28.0309 24.1488C28.0309 24.9112 27.4107 25.5314 26.6483 25.5314H23.2498C22.9909 25.5314 22.7811 25.7412 22.7811 26.0001C22.7811 26.2591 22.9909 26.4689 23.2498 26.4689H26.531V28.8438H5.46912V26.4689H21.0624C21.3212 26.4689 21.5311 26.2591 21.5311 26.0001C21.5311 25.7412 21.3212 25.5314 21.0624 25.5314H5.35175C4.5894 25.5314 3.9691 24.9112 3.9691 24.1488V22.8324C4.38453 23.0005 4.83783 23.094 5.31281 23.094C6.59446 23.094 7.7208 22.4191 8.35709 21.4066H23.6428C24.2791 22.4191 25.4055 23.094 26.6871 23.094C27.1621 23.094 27.6154 23.0005 28.0308 22.8324V24.1488H28.0309Z" fill="#505050"/>
<path d="M5.31282 21.0629C6.17435 21.0629 6.87527 20.3619 6.87527 19.5004C6.87527 18.6389 6.17435 17.938 5.31282 17.938C4.45128 17.938 3.75037 18.6389 3.75037 19.5004C3.75037 20.3619 4.45128 21.0629 5.31282 21.0629ZM5.31282 18.8754C5.65743 18.8754 5.9378 19.1558 5.9378 19.5004C5.9378 19.845 5.65743 20.1254 5.31282 20.1254C4.9682 20.1254 4.68784 19.845 4.68784 19.5004C4.68784 19.1558 4.9682 18.8754 5.31282 18.8754Z" fill="#505050"/>
<path d="M26.6871 21.0629C27.5487 21.0629 28.2496 20.3619 28.2496 19.5004C28.2496 18.6389 27.5487 17.938 26.6871 17.938C25.8256 17.938 25.1247 18.6389 25.1247 19.5004C25.1247 20.3619 25.8256 21.0629 26.6871 21.0629ZM26.6871 18.8754C27.0318 18.8754 27.3121 19.1558 27.3121 19.5004C27.3121 19.845 27.0318 20.1254 26.6871 20.1254C26.3425 20.1254 26.0622 19.845 26.0622 19.5004C26.0622 19.1558 26.3425 18.8754 26.6871 18.8754Z" fill="#505050"/>
<path d="M21.1359 8.27706C21.116 8.53517 21.309 8.76054 21.5671 8.78054C21.8241 8.80035 22.0506 8.60742 22.0706 8.34937L22.2289 6.30043C22.3681 4.87748 21.1282 3.56364 19.7008 3.59464H12.2992C10.8717 3.56358 9.63183 4.8776 9.77108 6.30043L10.6041 17.0822C10.6399 17.5445 11.06 17.9067 11.5606 17.9067H20.4394C20.94 17.9067 21.3601 17.5445 21.3958 17.0822L21.9016 10.5368C21.9215 10.2787 21.7285 10.0533 21.4703 10.0333C21.2132 10.0133 20.9869 10.2064 20.9669 10.4645L20.4646 16.966C20.4579 16.9678 20.4494 16.9692 20.4394 16.9692H11.5606C11.5505 16.9692 11.5421 16.9679 11.5355 16.966L10.7058 6.22812C10.6167 5.33271 11.4015 4.51024 12.2993 4.53205H19.7008C20.5986 4.51017 21.3834 5.33271 21.2943 6.22812L21.1359 8.27706Z" fill="#505050"/>
</g>
<defs>
<clipPath id="clip0">
<rect width="32" height="32" fill="white"/>
</clipPath>
</defs>
</svg>
