<svg width="32" height="32" viewBox="0 0 32 32" fill="none" xmlns="http://www.w3.org/2000/svg">
<g clip-path="url(#clip0)">
<path d="M25.4531 13.2186L24.5826 7.8922C24.541 7.63696 24.3009 7.46383 24.045 7.5056C23.7897 7.54731 23.6167 7.788 23.6584 8.04324L24.435 12.7948C20.4733 12.0119 16.3188 11.8108 12.0845 12.1986C11.8269 12.2222 11.6373 12.4501 11.6609 12.7077C11.6845 12.9652 11.9129 13.155 12.1698 13.1313C16.3489 12.7486 20.4464 12.9505 24.3487 13.7317C25.0089 13.8639 25.4882 14.4514 25.4882 15.1287V16.6063C25.4882 17.3925 24.8486 18.0321 24.0624 18.0321H7.93766C7.15146 18.0321 6.51186 17.3925 6.51186 16.6063V15.1579C6.51186 14.4707 7.0018 13.881 7.67668 13.7557C8.50833 13.6014 9.35515 13.4663 10.1936 13.3541C10.4499 13.3199 10.6299 13.0843 10.5956 12.8279C10.5614 12.5716 10.3257 12.3914 10.0694 12.4259C9.21536 12.5401 8.35286 12.6777 7.50579 12.8349H7.50572L8.82257 4.73811C9.18089 2.53529 11.0607 0.936545 13.2923 0.936545H18.6486C20.8785 0.936545 22.7581 2.53385 23.1177 4.73467L23.3342 6.05901C23.3758 6.31419 23.6162 6.4872 23.8718 6.44562C24.127 6.40391 24.3001 6.16315 24.2583 5.90791L24.0419 4.58364C23.833 3.30538 23.1744 2.13951 22.1875 1.30074C21.2006 0.461904 19.9437 0 18.6486 0H13.2923C11.9963 0 10.7389 0.462404 9.75175 1.30205C8.76457 2.14169 8.1063 3.30856 7.89826 4.5877L6.48183 13.2968C5.92509 13.7329 5.57532 14.4106 5.57532 15.1579V16.6063C5.57532 17.9089 6.63505 18.9686 7.93766 18.9686H8.29161L6.46566 31.0026C6.4277 31.2528 6.5005 31.5063 6.66539 31.6981C6.83029 31.89 7.07004 32 7.32304 32H7.78812C8.17398 32 8.5077 31.7518 8.61871 31.3823L11.5267 21.7027L12.5943 21.0412H19.4055L20.4732 21.7027L20.9451 23.2736C21.0061 23.4764 21.192 23.6073 21.3934 23.6073C21.4381 23.6073 21.4834 23.6009 21.5284 23.5874C21.7761 23.513 21.9165 23.2519 21.842 23.0042L20.6297 18.9686H22.761L24.5962 31.0635H24.2633L22.4163 24.9155C22.3419 24.6677 22.0809 24.5274 21.8331 24.6017C21.5854 24.6762 21.4449 24.9373 21.5194 25.1849L23.3812 31.3823C23.4921 31.7518 23.8259 32.0001 24.2118 32.0001H24.6768C24.9298 32.0001 25.1696 31.89 25.3345 31.6982C25.4994 31.5063 25.5722 31.2528 25.5342 31.0027L23.7083 18.9687H24.0622C25.3648 18.9687 26.4246 17.9089 26.4246 16.6063V15.1287C26.4247 14.3554 26.0468 13.6528 25.4531 13.2186ZM7.73661 31.0635H7.40364L9.23883 18.9686H11.3702L7.73661 31.0635ZM20.0666 20.349L19.889 20.239C19.7471 20.1511 19.5839 20.1046 19.417 20.1046H12.5829C12.416 20.1046 12.2529 20.1511 12.1108 20.2391L11.9333 20.3489L12.348 18.9685H19.6518L20.0666 20.349Z" fill="#505050"/>
</g>
<defs>
<clipPath id="clip0">
<rect width="32" height="32" fill="white"/>
</clipPath>
</defs>
</svg>
