<svg width="32" height="32" viewBox="0 0 32 32" fill="none" xmlns="http://www.w3.org/2000/svg">
<path d="M18.9728 25.3124H17.6822V13.8327H22.1276C22.5534 13.8327 22.8997 13.4865 22.8997 13.0611V11.7739H25.7678C26.1936 11.7739 26.5399 11.4278 26.5399 11.0024V9.18589C26.5399 8.76045 26.1936 8.41439 25.7678 8.41439H6.23233C5.80658 8.41439 5.46021 8.76052 5.46021 9.18589V11.0024C5.46021 11.4278 5.80658 11.7739 6.23233 11.7739H9.1004V13.0611C9.1004 13.4865 9.44678 13.8327 9.87253 13.8327H14.318V25.3124H13.0273C11.8657 25.3124 10.9205 26.2561 10.9205 27.4161C10.9205 27.8415 11.2669 28.1876 11.6927 28.1876H16.8495C17.1085 28.1876 17.3183 27.9777 17.3183 27.7188C17.3183 27.4599 17.1085 27.2501 16.8495 27.2501H11.8699C11.951 26.6854 12.4391 26.2499 13.0274 26.2499H18.973C19.5612 26.2499 20.0494 26.6854 20.1305 27.2501H18.6697C18.4107 27.2501 18.2009 27.4599 18.2009 27.7188C18.2009 27.9777 18.4107 28.1876 18.6697 28.1876H20.3077C20.7335 28.1876 21.0799 27.8414 21.0799 27.4161C21.0796 26.2561 20.1345 25.3124 18.9728 25.3124ZM16.7447 25.3124H15.2554V13.8327H16.7447V25.3124ZM14.7867 12.8951H10.038V11.774H11.3078C11.5668 11.774 11.7766 11.5641 11.7766 11.3052C11.7766 11.0463 11.5668 10.8365 11.3078 10.8365H6.39764V9.35189H25.6022V10.8365H13.128C12.8691 10.8365 12.6593 11.0463 12.6593 11.3052C12.6593 11.5641 12.8691 11.774 13.128 11.774H21.9622V12.8951H17.2135H14.7867Z" fill="#505050"/>
<path d="M8.96239 16.0438H3.36426V6.40057C3.36426 4.97351 2.20144 3.81251 0.772126 3.81251C0.346376 3.81251 0 4.15863 0 4.58401V18.0263C0 18.5001 0.240875 18.9187 0.606689 19.1665V20.3272C0.606689 20.6958 0.866939 21.0044 1.21338 21.0804V27.5976C1.21338 27.8564 1.42319 28.0663 1.68213 28.0663C1.94107 28.0663 2.15088 27.8564 2.15088 27.5976V24.1262H7.88695V27.5976C7.88695 27.8564 8.09677 28.0663 8.3557 28.0663C8.61464 28.0663 8.82445 27.8564 8.82445 27.5976V21.0805C9.17089 21.0045 9.43114 20.6959 9.43114 20.3273V19.3213C9.96133 19.1293 10.3412 18.6213 10.3412 18.0263V17.4208C10.3412 16.6615 9.72271 16.0438 8.96239 16.0438ZM7.88695 23.1889H2.15088V21.0988H7.88695V23.1889ZM8.49364 20.1612H1.54419V19.4033H8.49364V20.1612ZM9.40371 18.0263C9.40371 18.2686 9.20577 18.4658 8.96239 18.4658H1.37882C1.13544 18.4658 0.937502 18.2686 0.937502 18.0263V4.75813C1.7725 4.8412 2.42675 5.54601 2.42675 6.40051V16.5125C2.42675 16.7714 2.63657 16.9813 2.89551 16.9813H8.96239C9.20577 16.9813 9.40371 17.1785 9.40371 17.4208V18.0263Z" fill="#505050"/>
<path d="M31.228 3.81251C29.7986 3.81251 28.6358 4.97351 28.6358 6.40057V16.0438H23.0376C22.2774 16.0438 21.6588 16.6616 21.6588 17.4208V18.0263C21.6588 18.6213 22.0387 19.1293 22.5689 19.3213V20.3273C22.5689 20.6959 22.8291 21.0045 23.1756 21.0805V27.5977C23.1756 27.8566 23.3854 28.0664 23.6443 28.0664C23.9033 28.0664 24.1131 27.8566 24.1131 27.5977V24.1263H29.8491V27.5977C29.8491 27.8566 30.0589 28.0664 30.3179 28.0664C30.5768 28.0664 30.7866 27.8566 30.7866 27.5977V21.0805C31.1331 21.0045 31.3933 20.6959 31.3933 20.3273V19.1667C31.7591 18.9188 32 18.5002 32 18.0264V4.58401C32.0001 4.15863 31.6537 3.81251 31.228 3.81251ZM29.8492 23.1889H24.1131V21.0988H29.8492V23.1889ZM30.4559 20.1612H23.5064V19.4033H30.4559V20.1612ZM31.0626 18.0264C31.0626 18.2687 30.8646 18.4659 30.6213 18.4659H23.0377C22.7943 18.4659 22.5964 18.2687 22.5964 18.0264V17.4208C22.5964 17.1785 22.7943 16.9813 23.0377 16.9813H29.1046C29.3635 16.9813 29.5733 16.7715 29.5733 16.5126V6.40057C29.5733 5.54614 30.2276 4.84126 31.0626 4.7582V18.0264Z" fill="#505050"/>
</svg>
