<svg width="32" height="32" viewBox="0 0 32 32" fill="none" xmlns="http://www.w3.org/2000/svg">
<g clip-path="url(#clip0)">
<path d="M13.6362 13.9056C14.0426 11.8328 14.0426 9.73085 13.6362 7.65809C13.5864 7.40403 13.3398 7.23853 13.086 7.28828C12.8319 7.33809 12.6664 7.58441 12.7162 7.83847C13.0991 9.79154 13.0991 11.7721 12.7162 13.7252C12.6664 13.9792 12.8319 14.2256 13.086 14.2754C13.1164 14.2814 13.1468 14.2842 13.1767 14.2842C13.3962 14.2842 13.5923 14.1292 13.6362 13.9056Z" fill="#505050"/>
<path d="M24.0896 13.3466H23.3687V1.68258C23.3687 1.10782 23.0841 0.578946 22.6076 0.267883C22.1414 -0.036431 21.5594 -0.0844937 21.0508 0.139195L20.7627 0.26582C17.736 1.59658 14.2642 1.59658 11.2373 0.26582L10.9493 0.139195C10.4406 -0.0844312 9.85864 -0.0363685 9.39252 0.267883C8.91595 0.579009 8.63139 1.10782 8.63139 1.68258V13.3467H7.91051C6.34013 13.3466 5.0625 14.6456 5.0625 16.2423V21.0959C5.0625 22.6925 6.34013 23.9915 7.91051 23.9915H8.03657V25.6462C8.03657 26.0074 8.28445 26.3107 8.61751 26.3945L7.59326 31.0611C7.54251 31.2923 7.59832 31.5303 7.7462 31.7141C7.89232 31.8958 8.10926 32 8.34133 32H10.1428C10.4622 32 10.7511 31.7971 10.8616 31.495L12.7188 26.4183H19.2812L21.1384 31.495C21.2489 31.7971 21.5378 32 21.8573 32H23.6587C23.8908 32 24.1077 31.8958 24.2538 31.7141C24.4017 31.5303 24.4575 31.2923 24.4068 31.0611L23.3825 26.3945C23.7156 26.3107 23.9634 26.0075 23.9634 25.6462V23.9915H24.0895C25.6599 23.9915 26.9375 22.6925 26.9375 21.0959V16.2423C26.9376 14.6456 25.66 13.3466 24.0896 13.3466ZM10.0216 31.0626H8.55283L9.57221 26.4184H11.7206L10.0216 31.0626ZM12.3912 25.4808H9.19514H8.97408V23.9915H23.0259V25.4808H22.8049H19.6089H12.3912ZM23.4473 31.0626H21.9785L20.2796 26.4184H22.4279L23.4473 31.0626ZM26.0001 21.0959C26.0001 22.1756 25.143 23.054 24.0896 23.054H7.91051C6.85707 23.054 6 22.1756 6 21.0959V16.2423C6 15.1626 6.85707 14.2842 7.91051 14.2842H8.63139V18.6691C8.63139 19.5966 9.37533 20.3513 10.2898 20.3513H12.0593C12.3182 20.3513 12.5281 20.1414 12.5281 19.8825C12.5281 19.6236 12.3182 19.4138 12.0593 19.4138H10.2898C9.89227 19.4138 9.56889 19.0797 9.56889 18.6691V1.68258C9.56889 1.42182 9.69139 1.19239 9.90496 1.05295C10.1079 0.920448 10.351 0.90026 10.572 0.997386L10.86 1.12401C12.4935 1.84214 14.2465 2.2012 16 2.20108C17.7532 2.20102 19.5069 1.84195 21.14 1.12401L21.4281 0.997386C21.6491 0.900198 21.8922 0.920448 22.0951 1.05295C22.3087 1.19239 22.4312 1.42189 22.4312 1.68258V18.6691C22.4312 19.0797 22.1078 19.4137 21.7103 19.4137H13.8587C13.5998 19.4137 13.39 19.6236 13.39 19.8825C13.39 20.1413 13.5998 20.3512 13.8587 20.3512H21.7103C22.6248 20.3512 23.3687 19.5966 23.3687 18.669V14.2841H24.0896C25.143 14.2841 26.0001 15.1625 26.0001 16.2422V21.0959Z" fill="#505050"/>
<path d="M16.0001 16.1043C16.2589 16.1043 16.4688 15.8944 16.4688 15.6356V5.92822C16.4688 5.66935 16.2589 5.45947 16.0001 5.45947C15.7412 5.45947 15.5313 5.66935 15.5313 5.92822V15.6356C15.5313 15.8944 15.7412 16.1043 16.0001 16.1043Z" fill="#505050"/>
<path d="M18.8235 14.2843C18.8534 14.2843 18.8837 14.2814 18.9142 14.2754C19.1682 14.2256 19.3338 13.9793 19.284 13.7252C18.901 11.7722 18.901 9.79161 19.284 7.83854C19.3338 7.58448 19.1682 7.33816 18.9142 7.28835C18.6603 7.23841 18.4138 7.40404 18.364 7.65816C17.9576 9.73092 17.9576 11.8329 18.364 13.9056C18.4078 14.1292 18.6039 14.2843 18.8235 14.2843Z" fill="#505050"/>
</g>
<defs>
<clipPath id="clip0">
<rect width="32" height="32" fill="white"/>
</clipPath>
</defs>
</svg>
