<svg width="32" height="32" viewBox="0 0 32 32" fill="none" xmlns="http://www.w3.org/2000/svg">
<g clip-path="url(#clip0)">
<path d="M27.2127 31.4749L24.1099 5.90869C24.8115 5.6875 25.322 5.03076 25.322 4.25684V1.73145C25.322 0.776856 24.5452 0 23.5906 0H12.2368C11.978 0 11.7681 0.209961 11.7681 0.46875C11.7681 0.727539 11.978 0.9375 12.2368 0.9375H23.5906C24.0283 0.9375 24.3845 1.2937 24.3845 1.73145V4.25684C24.3845 4.69458 24.0283 5.05078 23.5906 5.05078H8.43798C8.00024 5.05078 7.64403 4.69458 7.64403 4.25684V1.73145C7.64403 1.2937 8.00024 0.9375 8.43798 0.9375H10.0474C10.3064 0.9375 10.5161 0.727539 10.5161 0.46875C10.5161 0.209961 10.3064 0 10.0474 0H8.43798C7.48339 0 6.70653 0.776856 6.70653 1.73145V4.25684C6.70653 5.03076 7.21679 5.6875 7.91869 5.90869L4.81591 31.4749C4.79979 31.6079 4.8413 31.7417 4.93041 31.842C5.01952 31.9424 5.14721 32 5.28124 32H7.80663C8.04369 32 8.2434 31.823 8.27196 31.5876L8.89867 26.4226C8.92992 26.1655 8.74682 25.9319 8.48974 25.9009C8.23266 25.8701 7.99926 26.0527 7.96801 26.3096L7.39135 31.0625H5.81029L8.85326 5.98828H23.1753L26.218 31.0625H24.6372L21.9133 8.61987C21.8848 8.38452 21.6851 8.20752 21.448 8.20752H10.5803C10.3433 8.20752 10.1435 8.38452 10.115 8.61987L8.2351 24.1108C8.20385 24.3677 8.38695 24.6013 8.64403 24.6326C8.90111 24.6641 9.13451 24.4807 9.16576 24.2236L9.45556 21.835H14.2827V31.5312C14.2827 31.79 14.4927 32 14.7515 32H17.2769C17.5359 32 17.7456 31.79 17.7456 31.5312V21.835H22.5728L23.7566 31.5876C23.7852 31.823 23.9849 32 24.2217 32H26.7471C26.8814 32 27.009 31.9424 27.0981 31.842C27.187 31.7417 27.2288 31.6079 27.2127 31.4749ZM15.2202 18.3726V9.14502H16.8081V18.3726H15.2202ZM10.9956 9.14502H14.2827V18.3726H9.87572L10.9956 9.14502ZM16.8081 31.0625H15.2202V21.835H16.8081V31.0625ZM9.56933 20.8975L9.76196 19.3101H18.7976C19.0564 19.3101 19.2664 19.1001 19.2664 18.8413C19.2664 18.5823 19.0564 18.3726 18.7976 18.3726H17.7458V9.14502H21.033L22.1528 18.3726H20.9829C20.7241 18.3726 20.5142 18.5823 20.5142 18.8413C20.5142 19.1001 20.7241 19.3101 20.9829 19.3101H22.2664L22.4592 20.8975H9.56933Z" fill="#505050"/>
</g>
<defs>
<clipPath id="clip0">
<rect width="32" height="32" fill="white"/>
</clipPath>
</defs>
</svg>
