<svg width="32" height="32" viewBox="0 0 32 32" fill="none" xmlns="http://www.w3.org/2000/svg">
<path d="M31.5312 15.625H0.46875C0.209961 15.625 0 15.8347 0 16.0938V20C0 20.259 0.209961 20.4688 0.46875 20.4688C0.727539 20.4688 0.9375 20.259 0.9375 20V18.4375H31.0625V31.0625H0.9375V22.0208C0.9375 21.762 0.727539 21.552 0.46875 21.552C0.209961 21.552 0 21.762 0 22.0208V31.5312C0 31.7903 0.209961 32 0.46875 32H31.5312C31.7903 32 32 31.7903 32 31.5312V16.0938C32 15.8347 31.7903 15.625 31.5312 15.625ZM0.9375 17.5V16.5625H31.0625V17.5H0.9375Z" fill="#505050"/>
<path d="M31.5312 0H0.46875C0.209961 0 0 0.209717 0 0.46875V2.34375C0 2.60278 0.209961 2.8125 0.46875 2.8125H6.15625V5.66504C4.75903 5.77686 3.65625 6.94946 3.65625 8.375C3.65625 8.77124 3.97876 9.09375 4.375 9.09375H5.21899C5.21875 9.10278 5.21875 9.11157 5.21875 9.12061C5.21875 9.896 5.84961 10.5269 6.625 10.5269C7.40039 10.5269 8.03125 9.896 8.03125 9.12061C8.03125 9.11157 8.03101 9.10278 8.03101 9.09375H8.875C9.27124 9.09375 9.59375 8.77124 9.59375 8.375C9.59375 6.94946 8.49097 5.77686 7.09375 5.66504V2.8125H15.5312V5.66504C14.134 5.77686 13.0312 6.94946 13.0312 8.375C13.0312 8.77124 13.3538 9.09375 13.75 9.09375H14.594C14.5938 9.10278 14.5938 9.11157 14.5938 9.12061C14.5938 9.896 15.2246 10.5269 16 10.5269C16.7754 10.5269 17.4062 9.896 17.4062 9.12061C17.4062 9.11157 17.406 9.10278 17.406 9.09375H18.25C18.6462 9.09375 18.9688 8.77124 18.9688 8.375C18.9688 6.94946 17.866 5.77686 16.4688 5.66504V2.8125H22C22.259 2.8125 22.4688 2.60278 22.4688 2.34375C22.4688 2.08472 22.259 1.875 22 1.875H0.9375V0.9375H31.0625V1.875H24C23.741 1.875 23.5312 2.08472 23.5312 2.34375C23.5312 2.60278 23.741 2.8125 24 2.8125H24.9062V5.66504C23.509 5.77686 22.4062 6.94946 22.4062 8.375C22.4062 8.77124 22.7288 9.09375 23.125 9.09375H23.969C23.9688 9.10278 23.9688 9.11157 23.9688 9.12061C23.9688 9.896 24.5996 10.5269 25.375 10.5269C26.1504 10.5269 26.7812 9.896 26.7812 9.12061C26.7812 9.11157 26.781 9.10278 26.781 9.09375H27.625C28.0212 9.09375 28.3438 8.77124 28.3438 8.375C28.3438 6.94946 27.241 5.77686 25.8438 5.66504V2.8125H31.5312C31.7903 2.8125 32 2.60278 32 2.34375V0.46875C32 0.209717 31.7903 0 31.5312 0ZM7.09375 9.12061C7.09375 9.37915 6.88354 9.58936 6.625 9.58936C6.36646 9.58936 6.15625 9.37915 6.15625 9.12061C6.15625 9.11157 6.15649 9.10254 6.15698 9.09375H7.09302C7.09351 9.10254 7.09375 9.11157 7.09375 9.12061ZM8.64282 8.15625H7.42822C7.42285 8.15625 7.41748 8.15625 7.41187 8.15625H5.83862C5.83276 8.15601 5.82715 8.15601 5.82129 8.15625H4.60718C4.71533 7.27686 5.4668 6.59375 6.375 6.59375H6.875C7.7832 6.59375 8.53467 7.27686 8.64282 8.15625ZM16.4688 9.12061C16.4688 9.37915 16.2585 9.58936 16 9.58936C15.7415 9.58936 15.5312 9.37915 15.5312 9.12061C15.5312 9.11157 15.5315 9.10254 15.532 9.09375H16.468C16.4685 9.10254 16.4688 9.11157 16.4688 9.12061ZM18.0178 8.15625H16.8015C16.7971 8.15625 16.7927 8.15625 16.7883 8.15625H15.2136C15.2078 8.15601 15.2021 8.15601 15.1963 8.15625H13.9822C14.0901 7.27686 14.8418 6.59375 15.75 6.59375H16.25C17.1582 6.59375 17.9097 7.27686 18.0178 8.15625ZM25.8438 9.12061C25.8438 9.37915 25.6335 9.58936 25.375 9.58936C25.1165 9.58936 24.9062 9.37915 24.9062 9.12061C24.9062 9.11157 24.9065 9.10254 24.907 9.09375H25.843C25.8435 9.10254 25.8438 9.11157 25.8438 9.12061ZM27.3928 8.15625H26.1765C26.1721 8.15625 26.1677 8.15625 26.1633 8.15625H24.5867C24.5823 8.15625 24.5779 8.15625 24.5735 8.15625H23.3572C23.4653 7.27686 24.217 6.59375 25.125 6.59375H25.625C26.5332 6.59375 27.2847 7.27686 27.3928 8.15625Z" fill="#505050"/>
<path d="M15.0625 30.125C15.3213 30.125 15.5312 29.9153 15.5312 29.6562V19.8438C15.5312 19.5847 15.3213 19.375 15.0625 19.375H2.34375C2.08496 19.375 1.875 19.5847 1.875 19.8438V29.6562C1.875 29.9153 2.08496 30.125 2.34375 30.125H15.0625ZM2.8125 20.3125H14.5938V29.1875H2.8125V20.3125Z" fill="#505050"/>
<path d="M13.1875 21.25H4.21875C3.95996 21.25 3.75 21.4597 3.75 21.7188V27.7812C3.75 28.0403 3.95996 28.25 4.21875 28.25H13.1875C13.4463 28.25 13.6562 28.0403 13.6562 27.7812V21.7188C13.6562 21.4597 13.4463 21.25 13.1875 21.25ZM12.7188 27.3125H4.6875V22.1875H12.7188V27.3125Z" fill="#505050"/>
<path d="M28 30.125H29.6562C29.9153 30.125 30.125 29.9153 30.125 29.6562V19.8438C30.125 19.5847 29.9153 19.375 29.6562 19.375H16.9375C16.6785 19.375 16.4688 19.5847 16.4688 19.8438V29.6562C16.4688 29.9153 16.6785 30.125 16.9375 30.125H26C26.259 30.125 26.4688 29.9153 26.4688 29.6562C26.4688 29.3972 26.259 29.1875 26 29.1875H17.4062V20.3125H29.1875V29.1875H28C27.741 29.1875 27.5312 29.3972 27.5312 29.6562C27.5312 29.9153 27.741 30.125 28 30.125Z" fill="#505050"/>
<path d="M28.25 27.7812V21.7188C28.25 21.4597 28.0403 21.25 27.7812 21.25H18.8125C18.5535 21.25 18.3438 21.4597 18.3438 21.7188V27.7812C18.3438 28.0403 18.5535 28.25 18.8125 28.25H27.7812C28.0403 28.25 28.25 28.0403 28.25 27.7812ZM27.3125 27.3125H19.2812V22.1875H27.3125V27.3125Z" fill="#505050"/>
</svg>
