<svg width="32" height="32" viewBox="0 0 32 32" fill="none" xmlns="http://www.w3.org/2000/svg">
<g clip-path="url(#clip0)">
<path d="M30.7812 5.17218H25.6562C25.3973 5.17218 25.1875 5.38206 25.1875 5.64093C25.1875 5.89981 25.3973 6.10968 25.6562 6.10968H30.7812C30.9363 6.10968 31.0625 6.23587 31.0625 6.39093V7.74399C31.0625 7.81581 31.0361 7.86962 31.0139 7.90218C31.0137 7.90237 31.0136 7.90262 31.0134 7.90281C30.9607 7.97949 30.8739 8.02518 30.7812 8.02518C30.4993 8.02518 1.49969 8.02518 1.21875 8.02518C1.06369 8.02518 0.9375 7.89899 0.9375 7.74393V6.39087C0.9375 6.23581 1.06369 6.10962 1.21875 6.10962H23.4688C23.7277 6.10962 23.9375 5.89974 23.9375 5.64087C23.9375 5.38199 23.7277 5.17212 23.4688 5.17212H1.21875C0.54675 5.17212 0 5.71887 0 6.39087V7.74393C0 8.41593 0.54675 8.96268 1.21875 8.96268H1.71875V10.9356C1.71875 11.8144 2.43369 12.5294 3.3125 12.5294H4.33906V18.0606C4.33906 18.3195 4.54894 18.5294 4.80781 18.5294C5.06669 18.5294 5.27656 18.3195 5.27656 18.0606V12.5294H7.07575L6.27081 25.4236C6.2545 25.6852 6.03638 25.8901 5.77419 25.8901C5.49981 25.8901 5.27663 25.6669 5.27663 25.3926V20.2481C5.27663 19.9892 5.06675 19.7794 4.80788 19.7794C4.549 19.7794 4.33913 19.9892 4.33913 20.2481V25.3926C4.33913 26.1839 4.98287 26.8276 5.77419 26.8276C6.53025 26.8276 7.15938 26.2365 7.2065 25.4819L8.01513 12.5293H23.9849L24.7936 25.4819C24.8407 26.2365 25.4698 26.8276 26.2259 26.8276C27.0172 26.8276 27.661 26.1839 27.661 25.3926V12.5295H28.6875C29.5663 12.5295 30.2812 11.8146 30.2812 10.9357V8.96281H30.7812C31.1821 8.96281 31.557 8.76581 31.7847 8.43574C31.7851 8.43518 31.7856 8.43462 31.7859 8.43412C31.926 8.23043 32.0001 7.99181 32.0001 7.74406V6.39099C32 5.71893 31.4533 5.17218 30.7812 5.17218ZM26.7234 25.3927C26.7234 25.6671 26.5002 25.8902 26.2258 25.8902C25.9637 25.8902 25.7455 25.6853 25.7292 25.4237L24.9242 12.5295H26.7234V25.3927ZM29.3438 10.9357C29.3438 11.2976 29.0494 11.592 28.6875 11.592C28.2929 11.592 3.952 11.592 3.3125 11.592C2.95062 11.592 2.65625 11.2976 2.65625 10.9357V8.96281H29.3438V10.9357Z" fill="#505050"/>
</g>
<defs>
<clipPath id="clip0">
<rect width="32" height="32" fill="white"/>
</clipPath>
</defs>
</svg>
