<svg width="36" height="36" viewBox="0 0 36 36" fill="none" xmlns="http://www.w3.org/2000/svg">
<path d="M32.4 31.119L30.3387 7.90675C30.2945 7.39141 29.8601 7.00123 29.3522 7.00123H25.1117C25.0528 3.12883 21.8871 0 18 0C14.1129 0 10.9473 3.12883 10.8884 7.00123H6.64787C6.13253 7.00123 5.70553 7.39141 5.66136 7.90675L3.60001 31.119C3.60001 31.1485 3.59265 31.1779 3.59265 31.2074C3.59265 33.8503 6.01474 36 8.99633 36H27.0037C29.9853 36 32.4074 33.8503 32.4074 31.2074C32.4074 31.1779 32.4074 31.1485 32.4 31.119ZM18 1.98773C20.7902 1.98773 23.065 4.22577 23.1239 7.00123H12.8761C12.935 4.22577 15.2098 1.98773 18 1.98773ZM27.0037 34.0123H8.99633C7.12639 34.0123 5.60983 32.7755 5.58038 31.2515L7.55339 8.99632H10.881V12.0147C10.881 12.5669 11.3227 13.0086 11.8749 13.0086C12.427 13.0086 12.8687 12.5669 12.8687 12.0147V8.99632H23.1239V12.0147C23.1239 12.5669 23.5657 13.0086 24.1178 13.0086C24.67 13.0086 25.1117 12.5669 25.1117 12.0147V8.99632H28.4393L30.4196 31.2515C30.3902 32.7755 28.8663 34.0123 27.0037 34.0123Z" fill="#3A3A3A"/>
</svg>
