<svg width="32" height="32" viewBox="0 0 32 32" fill="none" xmlns="http://www.w3.org/2000/svg">
<path d="M18.7646 11.0583H13.2355C12.035 11.0583 11.0583 12.035 11.0583 13.2354V18.7646C11.0583 19.965 12.035 20.9417 13.2355 20.9417H18.7646C19.9651 20.9417 20.9417 19.965 20.9417 18.7646V13.2354C20.9417 12.035 19.9651 11.0583 18.7646 11.0583ZM19.905 18.7646C19.905 19.3934 19.3934 19.905 18.7646 19.905H13.2355C12.6067 19.905 12.0951 19.3934 12.0951 18.7646V13.2354C12.0951 12.6066 12.6067 12.095 13.2355 12.095H18.7646C19.3934 12.095 19.905 12.6066 19.905 13.2354V18.7646Z" fill="white"/>
<path d="M7.70626 11.0583H2.17711C0.976657 11.0583 0 12.035 0 13.2354V18.7646C0 19.965 0.976657 20.9417 2.17711 20.9417H7.70626C8.90671 20.9417 9.88337 19.965 9.88337 18.7646V13.2354C9.88337 12.035 8.90671 11.0583 7.70626 11.0583ZM8.84665 18.7646C8.84665 19.3934 8.33507 19.905 7.70626 19.905H2.17711C1.5483 19.905 1.03672 19.3934 1.03672 18.7646V13.2354C1.03672 12.6066 1.5483 12.095 2.17711 12.095H7.70626C8.33507 12.095 8.84665 12.6066 8.84665 13.2354V18.7646Z" fill="white"/>
<path d="M29.8229 11.0583H24.2937C23.0933 11.0583 22.1166 12.035 22.1166 13.2354V18.7646C22.1166 19.965 23.0933 20.9417 24.2937 20.9417H29.8229C31.0234 20.9417 32 19.965 32 18.7646V13.2354C32 12.035 31.0234 11.0583 29.8229 11.0583ZM30.9633 18.7646C30.9633 19.3934 30.4517 19.905 29.8229 19.905H24.2937C23.6649 19.905 23.1534 19.3934 23.1534 18.7646V13.2354C23.1534 12.6066 23.6649 12.095 24.2937 12.095H29.8229C30.4517 12.095 30.9633 12.6066 30.9633 13.2354V18.7646Z" fill="white"/>
<path d="M18.7646 0H13.2355C12.035 0 11.0583 0.976657 11.0583 2.17711V7.70626C11.0583 8.90671 12.035 9.88337 13.2355 9.88337H18.7646C19.9651 9.88337 20.9417 8.90671 20.9417 7.70626V2.17711C20.9417 0.976657 19.9651 0 18.7646 0ZM19.905 7.70626C19.905 8.33507 19.3934 8.84665 18.7646 8.84665H13.2355C12.6067 8.84665 12.0951 8.33507 12.0951 7.70626V2.17711C12.0951 1.5483 12.6067 1.03672 13.2355 1.03672H18.7646C19.3934 1.03672 19.905 1.5483 19.905 2.17711V7.70626Z" fill="white"/>
<path d="M7.70626 0H2.17711C0.976657 0 0 0.976657 0 2.17711V7.70626C0 8.90671 0.976657 9.88337 2.17711 9.88337H7.70626C8.90671 9.88337 9.88337 8.90671 9.88337 7.70626V2.17711C9.88337 0.976657 8.90671 0 7.70626 0ZM8.84665 7.70626C8.84665 8.33507 8.33507 8.84665 7.70626 8.84665H2.17711C1.5483 8.84665 1.03672 8.33507 1.03672 7.70626V2.17711C1.03672 1.5483 1.5483 1.03672 2.17711 1.03672H7.70626C8.33507 1.03672 8.84665 1.5483 8.84665 2.17711V7.70626Z" fill="white"/>
<path d="M29.8229 0H24.2937C23.0933 0 22.1166 0.976657 22.1166 2.17711V7.70626C22.1166 8.90671 23.0933 9.88337 24.2937 9.88337H29.8229C31.0234 9.88337 32 8.90671 32 7.70626V2.17711C32 0.976657 31.0234 0 29.8229 0ZM30.9633 7.70626C30.9633 8.33507 30.4517 8.84665 29.8229 8.84665H24.2937C23.6649 8.84665 23.1534 8.33507 23.1534 7.70626V2.17711C23.1534 1.5483 23.6649 1.03672 24.2937 1.03672H29.8229C30.4517 1.03672 30.9633 1.5483 30.9633 2.17711V7.70626Z" fill="white"/>
<path d="M18.7646 22.1166H13.2355C12.035 22.1166 11.0583 23.0933 11.0583 24.2937V29.8229C11.0583 31.0234 12.035 32 13.2355 32H18.7646C19.9651 32 20.9417 31.0234 20.9417 29.8229V24.2937C20.9417 23.0933 19.9651 22.1166 18.7646 22.1166ZM19.905 29.8229C19.905 30.4517 19.3934 30.9633 18.7646 30.9633H13.2355C12.6067 30.9633 12.0951 30.4517 12.0951 29.8229V24.2937C12.0951 23.6649 12.6067 23.1534 13.2355 23.1534H18.7646C19.3934 23.1534 19.905 23.6649 19.905 24.2937V29.8229Z" fill="white"/>
<path d="M7.70626 22.1166H2.17711C0.976657 22.1166 0 23.0933 0 24.2937V29.8229C0 31.0234 0.976657 32 2.17711 32H7.70626C8.90671 32 9.88337 31.0234 9.88337 29.8229V24.2937C9.88337 23.0933 8.90671 22.1166 7.70626 22.1166ZM8.84665 29.8229C8.84665 30.4517 8.33507 30.9633 7.70626 30.9633H2.17711C1.5483 30.9633 1.03672 30.4517 1.03672 29.8229V24.2937C1.03672 23.6649 1.5483 23.1534 2.17711 23.1534H7.70626C8.33507 23.1534 8.84665 23.6649 8.84665 24.2937V29.8229Z" fill="white"/>
<path d="M29.8229 22.1166H24.2937C23.0933 22.1166 22.1166 23.0933 22.1166 24.2937V29.8229C22.1166 31.0234 23.0933 32 24.2937 32H29.8229C31.0234 32 32 31.0234 32 29.8229V24.2937C32 23.0933 31.0234 22.1166 29.8229 22.1166ZM30.9633 29.8229C30.9633 30.4517 30.4517 30.9633 29.8229 30.9633H24.2937C23.6649 30.9633 23.1534 30.4517 23.1534 29.8229V24.2937C23.1534 23.6649 23.6649 23.1534 24.2937 23.1534H29.8229C30.4517 23.1534 30.9633 23.6649 30.9633 24.2937V29.8229Z" fill="white"/>
</svg>
