<svg width="64" height="64" viewBox="0 0 64 64" fill="none" xmlns="http://www.w3.org/2000/svg">
<g clip-path="url(#clip0)">
<path d="M25.8483 28.5778C26.032 28.7666 26.2759 28.8614 26.5201 28.8614C26.7558 28.8614 26.9916 28.7731 27.1739 28.5958L29.5934 26.2407C29.7746 26.0642 29.877 25.8219 29.877 25.5688C29.877 25.3157 29.7748 25.0736 29.5934 24.8969L27.1739 22.5418C26.8029 22.1807 26.2093 22.1887 25.8483 22.5597C25.487 22.9307 25.4951 23.5243 25.8661 23.8854L27.5955 25.5687L25.8661 27.2519C25.4951 27.6132 25.487 28.2068 25.8483 28.5778Z" fill="#252525"/>
<path d="M7.82497 31.593C8.20972 31.9394 8.80247 31.9079 9.14897 31.5228L9.42547 31.2153V33.821C9.42547 34.3389 9.8451 34.7585 10.363 34.7585C10.8808 34.7585 11.3005 34.3389 11.3005 33.821V31.2153L11.577 31.5228C11.7621 31.7286 12.0177 31.8334 12.2743 31.8334C12.4977 31.8334 12.7218 31.754 12.901 31.593C13.286 31.2468 13.3175 30.654 12.9712 30.269L11.06 28.1439C10.8821 27.9461 10.6287 27.8333 10.3628 27.8333C10.097 27.8333 9.8436 27.9461 9.66572 28.1439L7.7546 30.269C7.40847 30.654 7.43997 31.2469 7.82497 31.593Z" fill="#252525"/>
<path d="M17.1878 34.7585C17.7056 34.7585 18.1253 34.3389 18.1253 33.821V31.2153L18.4018 31.5228C18.7481 31.908 19.341 31.9391 19.7258 31.593C20.1108 31.2468 20.1423 30.654 19.796 30.269L17.8849 28.1439C17.707 27.9461 17.4536 27.8333 17.1878 27.8333C16.9219 27.8333 16.6685 27.9461 16.4908 28.1439L14.5795 30.269C14.2331 30.654 14.2646 31.2468 14.6496 31.593C14.8289 31.7541 15.053 31.8334 15.2763 31.8334C15.533 31.8334 15.7886 31.7286 15.9736 31.5228L16.2504 31.2151V33.8211C16.2503 34.3388 16.6699 34.7585 17.1878 34.7585Z" fill="#252525"/>
<path d="M50.947 45.0439C49.1396 45.0439 47.6691 46.5144 47.6691 48.3218C47.6691 50.1293 49.1396 51.5998 50.947 51.5998C52.7545 51.5998 54.225 50.1293 54.225 48.3218C54.225 46.5144 52.7545 45.0439 50.947 45.0439ZM50.947 49.7247C50.1735 49.7247 49.5441 49.0953 49.5441 48.3217C49.5441 47.5481 50.1734 46.9188 50.947 46.9188C51.7206 46.9188 52.35 47.5481 52.35 48.3217C52.35 49.0953 51.7206 49.7247 50.947 49.7247Z" fill="#252525"/>
<path d="M11.743 48.3218C11.743 50.1293 13.2135 51.5998 15.0209 51.5998C16.8284 51.5998 18.2989 50.1293 18.2989 48.3218C18.2989 46.5144 16.8284 45.0439 15.0209 45.0439C13.2135 45.0439 11.743 46.5144 11.743 48.3218ZM16.4239 48.3218C16.4239 49.0953 15.7945 49.7248 15.0209 49.7248C14.2472 49.7248 13.618 49.0954 13.618 48.3218C13.618 47.5482 14.2472 46.9189 15.0209 46.9189C15.7945 46.9189 16.4239 47.5482 16.4239 48.3218Z" fill="#252525"/>
<path d="M63.4266 31.7375L57.9757 21.7569C57.6019 21.0721 56.8848 20.6468 56.1045 20.6468H39.4193C38.2438 20.6468 37.2873 21.6031 37.2873 22.7788V28.0411C37.2873 28.5589 37.7069 28.9786 38.2248 28.9786C38.7426 28.9786 39.1623 28.5589 39.1623 28.0411V22.7788C39.1623 22.637 39.2775 22.5218 39.4193 22.5218H46.4194V33.9378C46.4194 35.1255 47.3856 36.0918 48.5734 36.0918H62.125V38.2485H61.2371C59.9199 38.2485 58.8483 39.3201 58.8483 40.6374C58.8483 41.9546 59.9199 43.0263 61.2371 43.0263H62.125V44.8971H58.154C56.8699 42.2058 54.1224 40.3413 50.947 40.3413C47.7716 40.3413 45.0243 42.2058 43.7401 44.8971H39.1623V31.7895C39.1623 31.2718 38.7426 30.852 38.2248 30.852C37.7069 30.852 37.2873 31.2718 37.2873 31.7895V37.4055H34.4885V9.06301C34.4885 8.31013 33.876 7.69751 33.123 7.69751H12.237C11.7191 7.69751 11.2995 8.11726 11.2995 8.63501C11.2995 9.15276 11.7191 9.57251 12.237 9.57251H15.1962V15.2871C15.1962 16.0245 15.7961 16.6245 16.5335 16.6245H21.664C22.4014 16.6245 23.0014 16.0246 23.0014 15.2871V9.57263H32.6134V37.4056H5.58425V9.57263H8.48862C9.0065 9.57263 9.42612 9.15288 9.42612 8.63513C9.42612 8.11738 9.0065 7.69763 8.48862 7.69763H5.07475C4.32188 7.69763 3.70925 8.31013 3.70925 9.06313V37.4056H0.9375C0.419625 37.4056 0 37.8253 0 38.3431V43.367C0 45.2446 1.52763 46.7723 3.40525 46.7723H4.3375V47.7729H0.9375C0.419625 47.7729 0 48.1925 0 48.7104C0 49.2283 0.419625 49.6479 0.9375 49.6479H5.275C5.79288 49.6479 6.2125 49.2283 6.2125 48.7104V46.7723H7.1925C7.09338 47.2738 7.04025 47.7916 7.04025 48.3218C7.04025 52.7223 10.6204 56.3024 15.0209 56.3024C16.5331 56.3024 18.0066 55.8756 19.2822 55.0681C19.7197 54.7913 19.85 54.2121 19.573 53.7746C19.2961 53.337 18.7167 53.2069 18.2795 53.4839C17.3042 54.1011 16.1775 54.4274 15.0209 54.4274C11.6543 54.4274 8.91525 51.6884 8.91525 48.3218C8.91525 44.9551 11.6543 42.2163 15.0209 42.2163C18.3875 42.2163 21.1265 44.9551 21.1265 48.3218C21.1265 49.2889 20.9054 50.2155 20.4694 51.076C20.2354 51.5378 20.42 52.102 20.882 52.336C21.344 52.57 21.9079 52.3855 22.142 51.9234C22.7122 50.7979 23.0015 49.5861 23.0015 48.3218C23.0015 47.7916 22.9484 47.2738 22.8493 46.7723H27.4517V47.4638C27.4517 48.8733 28.5986 50.02 30.0081 50.02H38.2436C39.6531 50.02 40.7999 48.8733 40.7999 47.4638V46.7723H43.1189C43.0197 47.2738 42.9666 47.7916 42.9666 48.3218C42.9666 52.7223 46.5467 56.3024 50.9471 56.3024C55.3476 56.3024 58.9277 52.7223 58.9277 48.3218C58.9277 47.7916 58.8746 47.2738 58.7755 46.7723H62.1446C63.1678 46.7723 64.0001 45.9399 64.0001 44.9166V33.9838C64 33.2029 63.8025 32.426 63.4266 31.7375ZM21.1265 14.7495H17.0713V9.57263H21.1264V14.7495H21.1265ZM15.0209 40.3414C11.8455 40.3414 9.098 42.2059 7.81388 44.8973H3.40525C2.5615 44.8973 1.875 44.2108 1.875 43.367V39.2806H37.2873V44.8974H22.2279C20.9438 42.2059 18.1963 40.3414 15.0209 40.3414ZM38.9248 47.4638C38.9248 47.8394 38.6191 48.145 38.2435 48.145H30.008C29.6322 48.145 29.3266 47.8394 29.3266 47.4638V46.7723H38.9248V47.4638ZM50.947 54.4274C47.5804 54.4274 44.8415 51.6884 44.8415 48.3218C44.8415 44.9551 47.5804 42.2163 50.947 42.2163C54.3136 42.2163 57.0526 44.9551 57.0526 48.3218C57.0526 51.6884 54.3136 54.4274 50.947 54.4274ZM56.1045 22.5218C56.1981 22.5218 56.2848 22.5725 56.33 22.6555H56.3301L61.781 32.6361C62.202 33.407 62.1125 34.0941 62.125 34.2169H61.666L58.4534 31.0044L58.8795 30.5783C59.2456 30.2121 59.2456 29.6185 58.8795 29.2525C58.5133 28.8864 57.9197 28.8864 57.5536 29.2525L55.3756 31.4305C55.0095 31.7966 55.0095 32.3901 55.3756 32.7564C55.742 33.1225 56.3354 33.1224 56.7015 32.7564L57.1275 32.3304L59.0141 34.217H52.4551L52.2202 29.0533C52.1216 26.8844 50.4245 25.1639 48.2944 25.0023V22.5219H56.1045V22.5218ZM48.2943 33.9378V26.8885C49.4176 27.0428 50.2941 27.9741 50.3471 29.1384L50.5781 34.2169H48.5732C48.4195 34.2169 48.2943 34.0916 48.2943 33.9378ZM61.2371 41.1514C60.9538 41.1514 60.7233 40.9208 60.7233 40.6375C60.7233 40.3543 60.9539 40.1236 61.2371 40.1236H62.125V41.1515H61.2371V41.1514Z" fill="#252525"/>
<path d="M43.5409 30.8959V27.6387C43.5409 27.1209 43.1212 26.7012 42.6034 26.7012C42.0855 26.7012 41.6659 27.1209 41.6659 27.6387V30.8959C41.6659 31.4137 42.0855 31.8334 42.6034 31.8334C43.1212 31.8334 43.5409 31.4137 43.5409 30.8959Z" fill="#252525"/>
</g>
<defs>
<clipPath id="clip0">
<rect width="64" height="64" fill="white"/>
</clipPath>
</defs>
</svg>
