<svg width="64" height="64" viewBox="0 0 64 64" fill="none" xmlns="http://www.w3.org/2000/svg">
<g clip-path="url(#clip0)">
<path d="M63.0625 14.1785C63.5802 14.1785 64 13.7588 64 13.241V6.24097C64 5.72309 63.5802 5.30347 63.0625 5.30347H0.9375C0.41975 5.30347 0 5.72309 0 6.24097V49.1722C0 49.6901 0.41975 50.1097 0.9375 50.1097H44.1946V57.7588C44.1946 58.0871 44.3663 58.3915 44.6473 58.5612C44.9281 58.7308 45.2775 58.7413 45.568 58.589L50.183 56.166L54.798 58.589C54.9347 58.6607 55.0844 58.6963 55.2337 58.6963C55.402 58.6963 55.57 58.6511 55.7188 58.5612C55.9997 58.3915 56.1714 58.0871 56.1714 57.7588V50.1097H63.0626C63.5804 50.1097 64.0001 49.6901 64.0001 49.1722V17.616C64.0001 17.0981 63.5804 16.6785 63.0626 16.6785C62.5449 16.6785 62.1251 17.0981 62.1251 17.616V48.2347H56.1714V48.0531C56.9011 47.4857 57.5486 46.818 58.0928 46.0697H59.0214C59.5391 46.0697 59.9589 45.6501 59.9589 45.1322V29.5861C59.9589 29.0682 59.5391 28.6486 59.0214 28.6486C58.5036 28.6486 58.0839 29.0682 58.0839 29.5861V34.5851C56.3044 32.1461 53.4265 30.5571 50.183 30.5571C44.7922 30.5571 40.4066 34.9428 40.4066 40.3336C40.4066 41.7043 40.6914 43.0095 41.203 44.1947H5.91625V37.4161C5.91625 36.8982 5.4965 36.4786 4.97875 36.4786C4.461 36.4786 4.04125 36.8982 4.04125 37.4161V45.1322C4.04125 45.6501 4.461 46.0697 4.97875 46.0697H42.2733C42.8174 46.818 43.4647 47.4857 44.1945 48.0531V48.2347H1.875V7.17847H62.125V13.241C62.125 13.7588 62.5448 14.1785 63.0625 14.1785ZM50.6188 54.2771C50.3459 54.1338 50.02 54.1338 49.7471 54.2771L46.0696 56.2078V49.1993C47.3209 49.7822 48.714 50.1098 50.183 50.1098C51.6519 50.1098 53.045 49.7822 54.2962 49.1993V56.2077L50.6188 54.2771ZM50.1829 32.4322C54.5316 32.4322 58.0706 35.9638 58.0838 40.3097V40.3578C58.0706 44.7036 54.5318 48.2352 50.1829 48.2352C45.826 48.2352 42.2815 44.6907 42.2815 40.3338C42.2815 35.9767 45.826 32.4322 50.1829 32.4322Z" fill="#252525"/>
<path d="M40.8389 19.3001C41.3566 19.3001 41.7764 18.8805 41.7764 18.3626V14.322C41.7764 13.8041 41.3566 13.3845 40.8389 13.3845H23.1611C22.6434 13.3845 22.2236 13.8041 22.2236 14.322V18.3626C22.2236 18.8805 22.6434 19.3001 23.1611 19.3001H40.8389ZM24.0986 15.2595H39.9015V17.4251H24.0986V15.2595Z" fill="#252525"/>
<path d="M49.299 21.4657H14.701C14.1832 21.4657 13.7635 21.8853 13.7635 22.4032C13.7635 22.9211 14.1832 23.3407 14.701 23.3407H49.299C49.8167 23.3407 50.2365 22.9211 50.2365 22.4032C50.2365 21.8853 49.8167 21.4657 49.299 21.4657Z" fill="#252525"/>
<path d="M50.2365 26.4438C50.2365 25.926 49.8167 25.5063 49.299 25.5063H14.701C14.1832 25.5063 13.7635 25.926 13.7635 26.4438C13.7635 26.9617 14.1832 27.3813 14.701 27.3813H49.299C49.8167 27.3813 50.2365 26.9617 50.2365 26.4438Z" fill="#252525"/>
<path d="M36.3467 30.4845C36.3467 29.9666 35.927 29.547 35.4092 29.547H14.701C14.1832 29.547 13.7635 29.9666 13.7635 30.4845C13.7635 31.0024 14.1832 31.422 14.701 31.422H35.4094C35.9271 31.422 36.3467 31.0024 36.3467 30.4845Z" fill="#252525"/>
<path d="M21.5196 33.5878H14.701C14.1832 33.5878 13.7635 34.0074 13.7635 34.5253C13.7635 35.0431 14.1832 35.4628 14.701 35.4628H21.5196C22.0374 35.4628 22.4571 35.0431 22.4571 34.5253C22.4571 34.0074 22.0374 33.5878 21.5196 33.5878Z" fill="#252525"/>
<path d="M21.5196 37.6283H14.701C14.1832 37.6283 13.7635 38.0479 13.7635 38.5658C13.7635 39.0837 14.1832 39.5033 14.701 39.5033H21.5196C22.0374 39.5033 22.4571 39.0837 22.4571 38.5658C22.4571 38.0479 22.0374 37.6283 21.5196 37.6283Z" fill="#252525"/>
<path d="M59.0212 26.1485C59.539 26.1485 59.9587 25.7289 59.9587 25.211V10.281C59.9587 9.76313 59.539 9.34351 59.0212 9.34351H4.97876C4.46101 9.34351 4.04126 9.76313 4.04126 10.281V33.041C4.04126 33.5589 4.46101 33.9785 4.97876 33.9785C5.49651 33.9785 5.91626 33.5589 5.91626 33.041V11.2185H58.0837V25.211C58.0837 25.7289 58.5035 26.1485 59.0212 26.1485Z" fill="#252525"/>
<path d="M50.1829 46.0693C53.3456 46.0693 55.9186 43.4963 55.9186 40.3335C55.9186 37.1708 53.3456 34.5977 50.1829 34.5977C47.0201 34.5977 44.4471 37.1708 44.4471 40.3335C44.4471 43.4963 47.0202 46.0693 50.1829 46.0693ZM50.1829 36.4728C52.3117 36.4728 54.0436 38.2047 54.0436 40.3337C54.0436 42.4624 52.3117 44.1944 50.1829 44.1944C48.054 44.1944 46.3221 42.4625 46.3221 40.3337C46.3221 38.2047 48.0541 36.4728 50.1829 36.4728Z" fill="#252525"/>
</g>
<defs>
<clipPath id="clip0">
<rect width="64" height="64" fill="white"/>
</clipPath>
</defs>
</svg>
