<svg width="64" height="64" viewBox="0 0 64 64" fill="none" xmlns="http://www.w3.org/2000/svg">
<g clip-path="url(#clip0)">
<path d="M63.0625 56.4521H56.8364V31.8477C57.799 31.5483 58.5 30.6491 58.5 29.5892V28.2061C58.5 26.9022 57.4394 25.8415 56.1355 25.8415H51.7422L50.5252 7.31372C50.4749 6.3936 49.7136 5.67297 48.7923 5.67297H45.0304C44.1088 5.67297 43.3475 6.39385 43.2981 7.3036L42.0805 25.8416H37.8451V16.51C37.8451 15.3436 36.8962 14.3947 35.7299 14.3947H35.4678V11.51C35.4678 10.3436 34.5189 9.39472 33.3525 9.39472H7.66162C6.49525 9.39472 5.54637 10.3436 5.54637 11.51V14.3947H5.28425C4.11787 14.3947 3.169 15.3436 3.169 16.51V34.7862C3.169 35.304 3.58863 35.7237 4.1065 35.7237C4.62438 35.7237 5.044 35.304 5.044 34.7862V16.51C5.044 16.3775 5.15175 16.2697 5.28425 16.2697H35.7298C35.8623 16.2697 35.97 16.3775 35.97 16.51V25.8416H12.925C11.6211 25.8416 10.5604 26.9023 10.5604 28.2062V29.5893C10.5604 30.6492 11.2614 31.5483 12.224 31.8477V56.4521H5.04413V38.5362C5.04413 38.0185 4.6245 37.5987 4.10663 37.5987C3.58875 37.5987 3.16913 38.0185 3.16913 38.5362V56.452H0.9375C0.419625 56.452 0 56.8717 0 57.3895C0 57.9072 0.419625 58.327 0.9375 58.327H63.0625C63.5804 58.327 64 57.9072 64 57.3895C64 56.8717 63.5804 56.4521 63.0625 56.4521ZM7.42137 11.51C7.42137 11.3775 7.52912 11.2697 7.66162 11.2697H33.3525C33.485 11.2697 33.5928 11.3775 33.5928 11.51V14.3947H7.42137V11.51ZM44.027 51.8492V45.0771H48.9753V51.8492H44.027ZM37.7201 51.8492V45.0771H42.152V51.8492H37.7201ZM31.6863 51.8492V45.0771H35.8451V51.8492H31.6863ZM24.863 51.8492V45.0771H29.8113V51.8492H24.863ZM19.1386 51.8492V45.0771H22.988V51.8492H19.1386ZM54.9614 43.2022H50.8501V36.4301H54.9614V43.2022ZM48.9753 43.2022H44.027V36.4301H48.9753V43.2022ZM42.152 43.2022H37.7201V36.4301H42.152V43.2022ZM35.8451 43.2022H31.6863V36.4301H35.8451V43.2022ZM29.8113 43.2022H24.863V36.4301H29.8113V43.2022ZM22.988 43.2022H19.1386V36.4301H22.988V43.2022ZM50.8503 45.0772H54.9615V51.8493H50.8503V45.0772ZM45.161 7.54785H48.6618L49.8633 25.8415H43.9595L45.161 7.54785ZM14.099 31.9537H42.375C42.8929 31.9537 43.3125 31.534 43.3125 31.0162C43.3125 30.4985 42.8929 30.0787 42.375 30.0787H12.925C12.655 30.0787 12.4354 29.8591 12.4354 29.5892V28.2061C12.4354 27.9361 12.655 27.7165 12.925 27.7165H56.1355C56.4054 27.7165 56.625 27.9361 56.625 28.2061V29.5892C56.625 29.8592 56.4054 30.0787 56.1355 30.0787H46.125C45.6071 30.0787 45.1875 30.4985 45.1875 31.0162C45.1875 31.534 45.6071 31.9537 46.125 31.9537H54.9614V34.5551H18.9104C18.0024 34.5551 17.2636 35.2938 17.2636 36.2018V52.0775C17.2636 52.9855 18.0024 53.7242 18.9104 53.7242H54.9614V56.452H14.099V31.9537Z" fill="#252525"/>
<path d="M10.7856 22.5871V19.6453C10.7856 19.1275 10.3658 18.7078 9.84808 18.7078C9.33021 18.7078 8.91058 19.1275 8.91058 19.6453V22.5871C8.91058 23.1049 9.33021 23.5246 9.84808 23.5246C10.366 23.5246 10.7856 23.1049 10.7856 22.5871Z" fill="#252525"/>
<path d="M18.113 22.5871V19.6453C18.113 19.1275 17.6934 18.7078 17.1755 18.7078C16.6577 18.7078 16.238 19.1275 16.238 19.6453V22.5871C16.238 23.1049 16.6577 23.5246 17.1755 23.5246C17.6934 23.5246 18.113 23.1049 18.113 22.5871Z" fill="#252525"/>
<path d="M25.4404 22.5871V19.6453C25.4404 19.1275 25.0206 18.7078 24.5029 18.7078C23.985 18.7078 23.5654 19.1275 23.5654 19.6453V22.5871C23.5654 23.1049 23.985 23.5246 24.5029 23.5246C25.0206 23.5246 25.4404 23.1049 25.4404 22.5871Z" fill="#252525"/>
<path d="M32.7676 22.5871V19.6453C32.7676 19.1275 32.348 18.7078 31.8301 18.7078C31.3123 18.7078 30.8926 19.1275 30.8926 19.6453V22.5871C30.8926 23.1049 31.3123 23.5246 31.8301 23.5246C32.3479 23.5246 32.7676 23.1049 32.7676 22.5871Z" fill="#252525"/>
</g>
<defs>
<clipPath id="clip0">
<rect width="64" height="64" fill="white"/>
</clipPath>
</defs>
</svg>
