<svg width="64" height="64" viewBox="0 0 64 64" fill="none" xmlns="http://www.w3.org/2000/svg">
<path d="M63.113 37.1845C62.2163 35.9314 60.7222 35.0894 59.2144 34.9869C57.9835 34.9041 56.8681 35.3197 56.0746 36.1597C55.9005 36.3439 55.7126 36.5463 55.5138 36.7631C54.636 35.9588 53.4856 35.4413 52.3258 35.3626C51.0944 35.2801 49.9794 35.6954 49.1861 36.5353C47.4589 38.3636 44.4007 41.9351 41.9989 44.7784C41.6856 44.5931 41.3505 44.4404 40.996 44.3257C39.848 43.8314 24.0225 37.0727 17.0077 37.0727C5.6763 37.0727 0.470522 43.1634 0.254521 43.4225C-0.0768557 43.8202 -0.0231054 44.4101 0.373522 44.7426C0.770274 45.0752 1.36228 45.0231 1.69603 44.6274C1.70803 44.6132 2.92416 43.1892 5.40818 41.7861C7.69769 40.4931 11.5687 38.9513 17.0076 38.9513C23.7469 38.9513 40.1294 45.9979 40.2941 46.069C40.5953 46.1989 40.9059 46.2983 41.1809 46.4818C41.4405 46.655 41.6729 46.8689 41.8676 47.1128C42.2459 47.5866 42.4828 48.1729 42.5325 48.7776C42.6371 50.0447 41.926 51.2688 40.7781 51.8099C40.0543 52.1512 39.289 52.1614 38.5285 51.953L28.2789 49.1301C27.7854 48.9941 27.2597 49.293 27.1238 49.7863C26.9879 50.2798 27.2866 50.8054 27.7799 50.9413L38.0152 53.7603C39.2589 54.1439 40.6179 54.0184 41.7701 53.4142C42.9405 52.8005 43.8019 51.7677 44.1954 50.5063C44.3239 50.0948 44.3964 49.6749 44.416 49.2553L47.165 48.9658C47.4083 48.9401 47.632 48.8206 47.7887 48.6326C47.8564 48.5513 54.5971 40.4591 57.4404 37.4496C58.6221 36.1981 60.7321 37.0852 61.5855 38.2775C62.8978 40.1108 61.267 42.1122 60.736 42.6821C58.1265 45.4819 53.3413 51.2503 52.4812 52.29L33.0057 62.0277L22.9855 57.8087C22.5138 57.6101 21.9539 57.838 21.7553 58.31C21.5566 58.7817 21.7846 59.3415 22.2564 59.5401L32.675 63.9267C32.9255 64.0324 33.2166 64.0227 33.4596 63.9012L53.4991 53.8814C53.6163 53.8228 53.72 53.7403 53.8035 53.6391C53.8585 53.5724 59.3359 46.9399 62.1105 43.9627C64.1528 41.7719 64.5373 39.1741 63.113 37.1845ZM46.5894 47.1376L44.1418 47.3954C43.9683 46.9041 43.718 46.4425 43.4025 46.0281C45.4484 43.6064 48.7729 39.7086 50.5516 37.8258C51.0654 37.2817 51.7304 37.2047 52.1982 37.2373C52.9346 37.2875 53.6897 37.6348 54.2576 38.1602C51.4393 41.3417 47.6024 45.9243 46.5894 47.1376Z" fill="#252525"/>
<path d="M18.3737 55.8676L14.3661 54.1801C14.2507 54.1314 14.1267 54.1064 14.0014 54.1064H0.975742C0.456989 54.1064 0.0363617 54.5269 0.0363617 55.0458C0.0363617 55.5647 0.456989 55.9852 0.975742 55.9852H13.8117L17.6445 57.5989C18.1487 57.8113 18.7397 57.5353 18.9048 57.0156C19.0498 56.5593 18.8145 56.0531 18.3737 55.8676Z" fill="#252525"/>
<path d="M49.9399 31.3211L45.94 31.8926C49.1927 28.4077 51.0121 23.8423 51.0121 18.9749C51.0121 8.51218 42.4999 0 32.0372 0C21.5744 0 13.0623 8.51218 13.0623 18.9749C13.0623 23.173 14.4056 27.1514 16.9469 30.4797C19.4064 33.7009 22.894 36.0905 26.7675 37.2081C27.2799 37.3557 27.8239 37.0335 27.9434 36.515C28.0541 36.0356 27.7603 35.5393 27.2883 35.403C20.0184 33.3054 14.941 26.5498 14.941 18.9747C14.941 9.5478 22.6104 1.87851 32.0372 1.87851C41.4641 1.87851 49.1334 9.5478 49.1334 18.9747C49.1334 23.6349 47.2834 27.9887 43.9983 31.1929V26.239C43.9983 25.7201 43.5778 25.2996 43.0589 25.2996C42.54 25.2996 42.1195 25.7201 42.1195 26.239V33.2528C42.1195 33.8144 42.6353 34.2627 43.1918 34.1828L50.2056 33.1808C50.7123 33.1084 51.0752 32.6248 51.0027 32.1181C50.9303 31.6118 50.4461 31.2494 49.9399 31.3211Z" fill="#252525"/>
<path d="M32.0372 18.0352H31.0352C29.8957 18.0352 28.9687 17.1081 28.9687 15.9687C28.9687 14.8292 29.8958 13.9021 31.0352 13.9021H35.0431C35.562 13.9021 35.9825 13.4816 35.9825 12.9627C35.9825 12.4438 35.562 12.0233 35.0431 12.0233H32.9764V10.9587C32.9764 10.4398 32.5559 10.0193 32.0371 10.0193C31.5183 10.0193 31.0977 10.4398 31.0977 10.9587V12.0233H31.0351C28.8597 12.0233 27.0898 13.7932 27.0898 15.9686C27.0898 18.144 28.8597 19.9138 31.0351 19.9138H32.0371C33.1766 19.9138 34.1037 20.841 34.1037 21.9804C34.1037 23.1197 33.1766 24.0469 32.0371 24.0469H28.0292C27.5104 24.0469 27.0898 24.4674 27.0898 24.9862C27.0898 25.5051 27.5104 25.9256 28.0292 25.9256H31.0977V26.9903C31.0977 27.5091 31.5183 27.9296 32.0371 27.9296C32.5559 27.9296 32.9764 27.5091 32.9764 26.9903V25.8119C34.6997 25.3893 35.9823 23.8322 35.9823 21.9805C35.9825 19.8051 34.2126 18.0352 32.0372 18.0352Z" fill="#252525"/>
</svg>
