<svg width="54" height="54" viewBox="0 0 54 54" fill="none" xmlns="http://www.w3.org/2000/svg">
<path d="M28.678 29.7971C28.369 29.4882 27.8682 29.4882 27.5593 29.7971L5.63298 51.7233C4.70791 52.6485 3.20224 52.6485 2.27718 51.7233C1.82893 51.2751 1.58203 50.6792 1.58203 50.0453C1.58203 49.4114 1.82893 48.8155 2.27718 48.3673L48.367 2.27745C49.2921 1.35228 50.7978 1.35228 51.7228 2.27745C52.1711 2.72569 52.418 3.32159 52.418 3.95546C52.418 4.58932 52.1711 5.18522 51.7228 5.63346L29.7966 27.5597C29.4877 27.8686 29.4877 28.3695 29.7966 28.6783C30.1056 28.9872 30.6064 28.9872 30.9153 28.6783L52.8415 6.75207C53.5886 6.00514 54 5.01194 54 3.95546C54 2.89898 53.5886 1.90578 52.8416 1.15874C51.2996 -0.383317 48.7904 -0.383317 47.2483 1.15874L1.15847 47.2486C0.411434 47.9956 0 48.9888 0 50.0453C0 51.1018 0.411434 52.095 1.15836 52.8419C1.92945 53.613 2.94226 53.9985 3.95508 53.9985C4.96789 53.9985 5.98071 53.613 6.75179 52.8419L28.678 30.9157C28.9869 30.6068 28.9869 30.1059 28.678 29.7971Z" fill="#252525"/>
<path d="M13.5 27C20.9439 27 27 20.944 27 13.5C27 6.05602 20.9439 0 13.5 0C6.05612 0 0 6.05602 0 13.5C0 20.944 6.05612 27 13.5 27ZM13.5 1.58203C20.0717 1.58203 25.418 6.92835 25.418 13.5C25.418 20.0717 20.0717 25.418 13.5 25.418C6.92835 25.418 1.58203 20.0717 1.58203 13.5C1.58203 6.92835 6.92835 1.58203 13.5 1.58203Z" fill="#252525"/>
<path d="M13.5 20.6719C17.4546 20.6719 20.6719 17.4546 20.6719 13.5C20.6719 9.54545 17.4546 6.32812 13.5 6.32812C9.54545 6.32812 6.32812 9.54545 6.32812 13.5C6.32812 17.4546 9.54545 20.6719 13.5 20.6719ZM13.5 7.91016C16.5823 7.91016 19.0898 10.4178 19.0898 13.5C19.0898 16.5822 16.5823 19.0898 13.5 19.0898C10.4177 19.0898 7.91016 16.5822 7.91016 13.5C7.91016 10.4178 10.4177 7.91016 13.5 7.91016Z" fill="#252525"/>
<path d="M40.5 27C33.0561 27 27 33.056 27 40.5C27 47.944 33.0561 54 40.5 54C47.9439 54 54 47.944 54 40.5C54 33.056 47.9439 27 40.5 27ZM40.5 52.418C33.9283 52.418 28.582 47.0717 28.582 40.5C28.582 33.9283 33.9283 28.582 40.5 28.582C47.0717 28.582 52.418 33.9283 52.418 40.5C52.418 47.0717 47.0717 52.418 40.5 52.418Z" fill="#252525"/>
<path d="M40.5 33.3281C36.5454 33.3281 33.3281 36.5454 33.3281 40.5C33.3281 44.4546 36.5454 47.6719 40.5 47.6719C44.4546 47.6719 47.6719 44.4546 47.6719 40.5C47.6719 36.5454 44.4546 33.3281 40.5 33.3281ZM40.5 46.0898C37.4177 46.0898 34.9102 43.5822 34.9102 40.5C34.9102 37.4178 37.4177 34.9102 40.5 34.9102C43.5823 34.9102 46.0898 37.4178 46.0898 40.5C46.0898 43.5822 43.5823 46.0898 40.5 46.0898Z" fill="#252525"/>
</svg>
