<svg width="64" height="64" viewBox="0 0 64 64" fill="none" xmlns="http://www.w3.org/2000/svg">
<g clip-path="url(#clip0)">
<path d="M49.2205 37.5689C48.9438 37.1313 48.3645 37.0011 47.9272 37.2782C47.4898 37.555 47.3596 38.134 47.6365 38.5714C48.7694 40.3616 49.3683 42.4327 49.3683 44.5605V62.113H46.0017L48.0738 50.9968C48.2307 50.1549 48.0068 49.2943 47.4596 48.6356C46.9123 47.977 46.1074 47.5993 45.2511 47.5993H45.1441V46.5001C45.1441 45.3789 44.2318 44.4667 43.1107 44.4667H38.898C37.7766 44.4667 36.8644 45.379 36.8644 46.5001V47.5993H18.7487C17.8924 47.5993 17.0874 47.977 16.5402 48.6357C15.9929 49.2945 15.7691 50.1549 15.926 50.9968L16.8247 55.8178C16.9197 56.3269 17.4101 56.663 17.9179 56.5676C18.4268 56.4727 18.7625 55.9832 18.6676 55.4744L17.7689 50.6533C17.7144 50.3611 17.7922 50.0623 17.9821 49.8337C18.1721 49.605 18.4516 49.4739 18.7487 49.4739H45.2512C45.5484 49.4739 45.8278 49.605 46.0177 49.8336C46.2078 50.0623 46.2855 50.3611 46.231 50.6533L44.0948 62.113H19.9051L19.3661 59.2221C19.2711 58.7132 18.7807 58.3776 18.273 58.4723C17.7641 58.5672 17.4284 59.0567 17.5232 59.5655L17.9981 62.113H14.6315V44.5605C14.6315 41.993 15.5212 39.4839 17.1367 37.4954C18.6201 35.6692 20.6539 34.3485 22.9059 33.7366C23.0205 33.853 23.1373 33.9672 23.2562 34.0792L26.8362 44.2959C27.1725 45.2565 28.3459 45.6211 29.1677 45.0215L31.9999 42.9546L34.8321 45.0214C35.6516 45.6197 36.8257 45.2612 37.1638 44.2961L40.7435 34.0793C40.8622 33.9676 40.9788 33.8535 41.0933 33.7374C42.6487 34.16 44.1126 34.9224 45.3528 35.962C45.5284 36.1093 45.742 36.181 45.9545 36.181C46.2222 36.181 46.488 36.067 46.6733 35.8458C47.0058 35.449 46.9538 34.8579 46.5571 34.5253C45.329 33.496 43.9129 32.6996 42.4027 32.1798C42.791 31.6353 43.1369 31.0589 43.4373 30.4557H44.4566C45.8626 30.4557 47.0065 29.312 47.0065 27.906V25.4946C48.8332 25.0688 50.1985 23.4283 50.1985 21.4737V21.1164C50.1985 19.4891 49.2522 18.0793 47.8812 17.4068V9.65038C47.8812 4.32916 43.5521 0 38.2308 0H26.7558C26.238 0 25.8185 0.419544 25.8185 0.937319C25.8185 1.45509 26.238 1.87464 26.7558 1.87464H38.2308C42.5184 1.87464 46.0066 5.36284 46.0066 9.65038V16.9868H44.767C44.7002 13.5576 41.2806 11.3538 38.1182 12.4107C34.2905 13.6912 30.7615 13.0371 27.3298 10.4126C24.0585 7.91035 19.2307 10.0953 19.2307 14.5367V17.9746H18.2707C18.2593 17.9746 18.2481 17.9754 18.2368 17.9755C18.0885 12.5946 18.6266 11.2026 17.6006 9.1781L16.4756 6.9589C16.4228 6.85455 16.4948 6.73332 16.6117 6.72957L19.4485 6.64309C20.0981 6.62334 20.6625 6.2163 20.8862 5.60592C21.1099 4.99566 20.9424 4.32016 20.4593 3.88487L18.6526 2.25844C18.5007 2.12171 18.5956 1.87464 18.8001 1.87464H23.0082C23.5259 1.87464 23.9455 1.45509 23.9455 0.937319C23.9455 0.419544 23.5259 0 23.0082 0H18.8001C17.9254 0 17.1577 0.527648 16.8444 1.34437C16.5309 2.16083 16.7484 3.06653 17.3985 3.65179L18.6645 4.79145L16.5547 4.85594C15.8557 4.87718 15.2254 5.24899 14.8686 5.85024C14.5118 6.4515 14.4874 7.18286 14.8036 7.80662L15.9285 10.0257C16.2124 10.5855 16.3623 11.2131 16.3623 11.8405V18.5804C15.5092 19.1819 14.9505 20.1741 14.9505 21.2949C14.9505 23.1257 16.4401 24.6152 18.2708 24.6152H19.2308C19.2528 24.7523 18.9496 28.4675 21.5981 32.1804C19.2961 32.973 17.231 34.4061 15.682 36.313C13.7958 38.6347 12.7572 41.5637 12.7572 44.5603V62.133C12.7572 63.1555 13.589 63.9874 14.6115 63.9874C16.5072 63.9884 45.8479 64.0146 49.3888 63.9874C50.4114 63.9874 51.2432 63.1555 51.2432 62.133V44.5605C51.2431 42.0771 50.5437 39.6595 49.2205 37.5689ZM38.739 47.5993V46.5001C38.739 46.4125 38.8104 46.3413 38.898 46.3413H43.1107C43.1983 46.3413 43.2695 46.4125 43.2695 46.5001V47.5993H38.739ZM28.4476 43.2261L25.9186 36.0082C26.6157 36.3873 27.3523 36.7028 28.1198 36.9481L30.7672 41.5335L28.4476 43.2261ZM31.9999 39.9195L30.5875 37.4729C31.0515 37.5242 31.5225 37.5514 31.9999 37.5514C32.4773 37.5514 32.9485 37.5241 33.4124 37.4729L31.9999 39.9195ZM35.5524 43.2261L33.2327 41.5335L35.8801 36.9481C36.6475 36.7028 37.3841 36.3873 38.0813 36.0082L35.5524 43.2261ZM44.4566 28.581H44.1923C44.489 27.6309 44.6765 26.6332 44.7421 25.6031H45.1318V27.9059C45.1319 28.2782 44.8289 28.581 44.4566 28.581ZM48.3239 21.4736C48.3239 22.7169 47.3125 23.7284 46.0692 23.7284H44.7693V18.8615H46.0692C47.3125 18.8615 48.3239 19.873 48.3239 21.1163V21.4736ZM18.2707 22.7407C17.4735 22.7407 16.825 22.0922 16.825 21.295C16.825 20.4978 17.4735 19.8493 18.2707 19.8493H19.2307V22.7409H18.2707V22.7407ZM21.1053 14.5366C21.1053 11.6906 24.1175 10.3155 26.1908 11.9014C30.0993 14.8907 34.3119 15.6601 38.7128 14.1885C40.7272 13.5154 42.8946 14.9161 42.8946 17.0907V24.7821C42.8946 26.1177 42.6525 27.3976 42.2107 28.581H39.6823C39.3926 27.7771 38.6244 27.1997 37.7219 27.1997H35.2682C34.24 27.1997 33.3853 27.9486 33.2156 28.929C32.2758 29.3873 31.3809 29.3228 30.4281 28.7329C29.9881 28.4604 29.4102 28.5963 29.1377 29.0365C28.8652 29.4767 29.0011 30.0544 29.4413 30.3269C30.2783 30.845 31.1391 31.1041 31.9999 31.1041C32.4896 31.1041 32.9791 31.0173 33.4644 30.8497C33.8255 31.4725 34.4979 31.8935 35.2682 31.8935H37.7219C38.6456 31.8935 39.4299 31.2892 39.7031 30.4556H41.2974C39.3809 33.5846 35.9303 35.6767 31.9999 35.6767C25.9927 35.6767 21.1053 30.7894 21.1053 24.782V14.5366ZM37.9327 29.8081C37.9327 29.9243 37.8382 30.0189 37.7219 30.0189H35.2682C35.1519 30.0189 35.0575 29.9243 35.0575 29.8081V29.2851C35.0575 29.1689 35.1519 29.0744 35.2682 29.0744H37.7219C37.8382 29.0744 37.9327 29.1689 37.9327 29.2851V29.8081Z" fill="#252525"/>
<path d="M26.5731 21.9899C27.0909 21.9899 27.5104 21.5704 27.5104 21.0526V19.7475C27.5104 19.2297 27.0909 18.8102 26.5731 18.8102C26.0553 18.8102 25.6358 19.2297 25.6358 19.7475V21.0526C25.6358 21.5704 26.0553 21.9899 26.5731 21.9899Z" fill="#252525"/>
<path d="M37.4268 21.9899C37.9445 21.9899 38.3641 21.5704 38.3641 21.0526V19.7475C38.3641 19.2297 37.9445 18.8102 37.4268 18.8102C36.909 18.8102 36.4894 19.2297 36.4894 19.7475V21.0526C36.4894 21.5704 36.909 21.9899 37.4268 21.9899Z" fill="#252525"/>
<path d="M35.6004 58.1749C35.6004 56.1895 33.9852 54.5743 31.9998 54.5743C30.0144 54.5743 28.3992 56.1895 28.3992 58.1749C28.3992 60.1603 30.0144 61.7754 31.9998 61.7754C33.9852 61.7754 35.6004 60.1603 35.6004 58.1749ZM30.274 58.1749C30.274 57.2233 31.0482 56.449 31.9999 56.449C32.9515 56.449 33.7258 57.2232 33.7258 58.1749C33.7258 59.1266 32.9516 59.9008 31.9999 59.9008C31.0484 59.9008 30.274 59.1265 30.274 58.1749Z" fill="#252525"/>
</g>
<defs>
<clipPath id="clip0">
<rect width="64" height="64" fill="white"/>
</clipPath>
</defs>
</svg>
