<svg width="27" height="27" viewBox="0 0 27 27" fill="none" xmlns="http://www.w3.org/2000/svg">
<g clip-path="url(#clip0)">
<path d="M22.2566 8.08743V8.08771L22.2572 8.0871L22.2566 8.08743Z" fill="black"/>
<path d="M22.2566 7.41705L22.2572 7.41738L22.2566 7.41705Z" fill="black"/>
<path d="M20.1976 20.9666L16.4146 17.9702C15.9856 17.629 15.5328 17.4437 15.1169 17.4437C14.7149 17.4437 14.3471 17.6169 14.0692 17.9906L12.7965 19.7337C11.5785 18.766 10.4949 17.8098 9.46661 16.7871C8.43565 15.7664 7.47219 14.6913 6.4966 13.4825L8.25361 12.2197C9.01952 11.6583 8.94997 10.7294 8.27439 9.89242L5.25571 6.13909C4.9238 5.81177 4.48589 5.64719 4.04799 5.64719C3.61899 5.64719 3.18957 5.80492 2.85835 6.12264L0.575159 8.25106C0.293926 8.52206 0.109567 8.87011 0.0272483 9.28565C-0.396473 11.4209 4.2363 17.0966 6.69562 19.5371C9.04921 21.8723 14.3857 26.1811 16.7282 26.1811C16.8342 26.1811 16.934 26.1723 17.0271 26.1542C17.4456 26.0725 17.7963 25.8894 18.0696 25.6108L20.2145 23.3451C20.8614 22.6807 20.8505 21.6181 20.1976 20.9666ZM19.4901 22.6692L17.3525 24.9273C17.2214 25.059 17.0515 25.1437 16.8348 25.1861C16.8148 25.1901 16.7808 25.1943 16.7281 25.1943C14.9422 25.1943 10.0104 21.4305 7.39857 18.8391C6.33935 17.7884 4.5767 15.8194 3.09302 13.7285C0.863827 10.5876 0.981742 9.58002 1.00215 9.47497C1.04529 9.26024 1.13024 9.09233 1.26261 8.96229L3.5487 6.83092C3.68238 6.70319 3.8592 6.633 4.04788 6.633C4.22538 6.633 4.39197 6.69492 4.5217 6.80756L7.49861 10.5089C7.75443 10.8257 7.82593 11.0851 7.80848 11.2224C7.80384 11.2573 7.79434 11.3297 7.67021 11.4207L5.91389 12.6834C5.69325 12.8418 5.54807 13.0825 5.51184 13.3499C5.4753 13.6173 5.55102 13.8876 5.72093 14.0984C6.72816 15.3463 7.72358 16.454 8.76271 17.4832C9.80384 18.5188 10.9204 19.5066 12.1749 20.5033C12.3524 20.6442 12.5717 20.7196 12.7963 20.7196C12.8407 20.7196 12.8852 20.7166 12.9293 20.7107C13.1986 20.6745 13.4419 20.5306 13.6013 20.312L14.869 18.5761C14.9694 18.4411 15.0459 18.4295 15.1166 18.4295C15.296 18.4295 15.5489 18.5455 15.7946 18.7407L19.5233 21.6932C19.766 21.9688 19.758 22.3933 19.4901 22.6692Z" fill="black"/>
<path d="M25.1776 0.818848H12.0294C11.0235 0.820799 10.2096 1.62916 10.2076 2.6269V11.5129C10.2096 12.5106 11.0238 13.3295 12.0294 13.3311L18.4367 13.3236V16.0288C18.4367 16.2221 18.5507 16.3976 18.7281 16.4776C18.9056 16.5576 19.1134 16.527 19.2605 16.4002L22.7146 13.3297L25.1776 13.331C26.1835 13.3294 26.9984 12.521 27.0001 11.5234V2.62679C26.9984 1.62916 26.1835 0.820799 25.1776 0.818848ZM26.006 11.5234C26.006 11.7493 25.9141 11.9523 25.763 12.1035C25.6105 12.254 25.4054 12.3452 25.1779 12.3452H25.1759L22.5257 12.3446C22.4068 12.345 22.2909 12.3884 22.201 12.4664L19.4305 14.9441V12.8315C19.4305 12.5593 19.2092 12.3389 18.9347 12.3383L12.0302 12.3452H12.0295C11.802 12.3452 11.5972 12.2539 11.4451 12.1035C11.2933 11.9524 11.2014 11.739 11.2014 11.5131V2.62679C11.2014 2.40088 11.2933 2.1978 11.4451 2.04661C11.5975 1.89616 11.802 1.80493 12.0295 1.80493H25.1779C25.4055 1.80493 25.6106 1.89616 25.763 2.04661C25.9141 2.19769 26.006 2.40088 26.006 2.62679C26.006 2.62679 26.006 11.5234 26.006 11.5234Z" fill="black"/>
<path d="M20.9063 9.70767C21.3627 9.70767 21.7328 9.34089 21.7328 8.88844C21.7328 8.43599 21.3627 8.06921 20.9063 8.06921C20.4498 8.06921 20.0798 8.43599 20.0798 8.88844C20.0798 9.34089 20.4498 9.70767 20.9063 9.70767Z" fill="black"/>
<path d="M18.5917 9.70767C19.0482 9.70767 19.4182 9.34089 19.4182 8.88844C19.4182 8.43599 19.0482 8.06921 18.5917 8.06921C18.1352 8.06921 17.7652 8.43599 17.7652 8.88844C17.7652 9.34089 18.1352 9.70767 18.5917 9.70767Z" fill="black"/>
<path d="M16.2777 9.70767C16.7345 9.70767 17.1049 9.34089 17.1049 8.88844C17.1049 8.43599 16.7345 8.06921 16.2777 8.06921C15.8209 8.06921 15.4506 8.43599 15.4506 8.88844C15.4506 9.34089 15.8209 9.70767 16.2777 9.70767Z" fill="black"/>
</g>
<defs>
<clipPath id="clip0">
<rect width="27" height="27" fill="white"/>
</clipPath>
</defs>
</svg>
