<svg width="18" height="18" viewBox="0 0 18 18" fill="none" xmlns="http://www.w3.org/2000/svg">
<g clip-path="url(#clip0)">
<path d="M4.79064 11.6194C3.90488 10.4099 3.37507 8.9241 3.37507 7.31343C3.37507 3.28147 6.65559 0.000946045 10.6876 0.000946045C14.7195 0.000946045 18 3.28147 18 7.31343C18 11.3454 14.7195 14.6259 10.6875 14.6259C9.07685 14.6259 7.59096 14.096 6.38137 13.2103L1.59081 18.0008L1.90735e-06 16.41C1.90735e-06 16.41 4.79064 11.6194 4.79064 11.6194ZM10.6875 12.3759C13.4791 12.3759 15.75 10.1051 15.75 7.31343C15.75 4.52181 13.4791 2.25095 10.6875 2.25095C7.89589 2.25095 5.62504 4.52181 5.62504 7.31343C5.62504 10.1051 7.89593 12.3759 10.6875 12.3759Z" fill="white"/>
</g>
<defs>
<clipPath id="clip0">
<rect width="18" height="18" fill="white" transform="matrix(-1 0 0 1 18 0)"/>
</clipPath>
</defs>
</svg>
